<?xml version="1.0" standalone="no"?>
<!DOCTYPE svg PUBLIC "-//W3C//DTD SVG 20010904//EN"
 "http://www.w3.org/TR/2001/REC-SVG-20010904/DTD/svg10.dtd">
<svg height="1024.000000pt" 
 preserveAspectRatio="xMidYMid meet" version="1.0" viewBox="0 0 1024.000000 1024.000000"
 width="1024.000000pt" xmlns="http://www.w3.org/2000/svg">
<metadata>
Created by potrace 1.16, written by Peter Selinger 2001-2019
</metadata>
<g 
fill="#000000" stroke="none" transform="translate(0.000000,1024.000000) scale(0.100000,-0.100000)">
<path d="M0 5120 l0 -5120 1133 0 1133 0 12 78 c7 42 13 100 13 127 1 28 5 64
10 80 6 23 7 19 4 -20 -3 -27 -7 -98 -11 -157 l-6 -108 2581 0 2581 0 -6 63
c-11 117 -74 572 -90 647 -8 41 -17 122 -19 180 l-4 105 9 -95 c5 -52 14 -117
20 -145 16 -75 29 -160 40 -255 5 -47 12 -98 15 -115 8 -35 34 -230 41 -295 3
-25 7 -55 10 -67 l4 -23 1385 0 1385 0 0 5120 0 5120 -5120 0 -5120 0 0 -5120z
m5555 2895 c28 -3 59 -10 70 -15 77 -32 96 -44 120 -72 30 -36 85 -146 85
-172 0 -24 25 -30 68 -18 106 30 116 31 161 20 86 -21 120 -62 172 -205 22
-62 29 -77 83 -195 20 -43 59 -133 88 -200 l53 -123 -2 -105 c-1 -102 -8 -155
-37 -290 -10 -49 -14 -57 -15 -31 0 18 6 60 14 92 19 72 21 112 13 214 -7 78
-7 79 6 35 l14 -45 1 37 c1 48 -16 97 -101 293 -38 88 -92 216 -120 285 -28
69 -60 138 -71 154 -44 63 -162 84 -252 46 -57 -24 -75 -25 -75 -3 0 9 -20 59
-45 110 -36 73 -54 99 -84 119 -60 40 -125 55 -259 61 -77 4 -118 9 -110 15
12 8 115 5 223 -7z m-320 -34 c-44 -16 -116 -45 -160 -64 -80 -36 -157 -59
-124 -38 8 5 37 17 63 26 26 9 81 32 122 51 41 19 81 34 88 34 8 0 18 5 21 10
3 6 21 10 38 10 25 0 15 -7 -48 -29z m-321 -150 c7 -11 -108 -83 -224 -141
-102 -51 -203 -119 -287 -192 -107 -94 -124 -125 -148 -290 -23 -151 -20 -288
9 -399 24 -91 29 -121 41 -256 l6 -63 -31 0 c-55 0 -87 -31 -111 -110 -7 -25
-7 -25 -8 -2 -2 58 58 132 106 132 l25 0 -7 93 c-4 50 -20 146 -37 212 -27
110 -29 130 -25 240 6 137 26 261 51 322 28 67 215 227 331 283 17 8 32 17 35
20 3 3 23 14 45 25 59 29 156 86 190 112 35 26 32 26 39 14z m1186 -143 c19
-13 35 -29 38 -36 2 -7 -13 -1 -33 12 -20 14 -53 28 -74 32 -57 9 -59 12 -10
13 32 1 56 -6 79 -21z m-1764 -327 c-25 -39 -48 -71 -51 -71 -11 0 26 73 56
111 48 61 45 39 -5 -40z m1979 -932 c-76 -142 -77 -134 -2 27 29 62 56 109 60
104 5 -4 -21 -63 -58 -131z m-2159 -169 c0 -45 -3 -75 -8 -68 -14 23 -9 148 6
148 1 0 1 -36 2 -80z m2110 -15 c24 -33 15 -38 -15 -8 -24 23 -27 31 -18 48
l11 20 4 -20 c3 -11 11 -29 18 -40z m24 -190 c-11 -65 -40 -143 -114 -300 -87
-184 -101 -205 -135 -205 -9 0 -2 8 15 19 17 10 36 34 44 52 7 19 41 93 75
164 87 181 105 238 106 338 1 75 2 78 10 37 5 -26 5 -68 -1 -105z m-2013 -231
c26 -40 79 -67 123 -62 l40 3 11 -55 c6 -30 23 -88 36 -129 25 -71 26 -80 21
-252 l-5 -178 -36 -41 c-19 -23 -47 -72 -60 -108 -93 -248 -84 -232 -146 -259
-31 -13 -91 -42 -133 -64 -42 -22 -108 -51 -145 -65 -37 -14 -96 -36 -131 -50
-35 -14 -158 -50 -273 -79 -222 -58 -237 -64 -381 -151 -141 -85 -206 -134
-287 -217 -88 -90 -125 -146 -161 -247 -43 -117 -100 -398 -134 -665 -21 -165
-26 -183 -20 -90 7 128 41 353 84 555 37 179 43 195 93 295 58 113 194 249
332 330 55 32 118 71 140 85 41 27 164 80 225 98 19 5 89 22 155 37 66 15 129
31 140 35 11 5 36 13 55 20 19 7 44 16 55 20 11 4 43 16 70 25 97 33 331 147
356 173 9 9 31 55 49 102 18 47 41 104 51 127 11 23 19 44 19 46 0 3 15 28 34
55 l34 51 7 163 c6 156 6 166 -18 243 -14 44 -31 99 -37 123 -9 37 -14 42 -38
42 -15 0 -48 10 -72 23 -65 32 -75 53 -155 321 -8 26 -15 56 -15 65 1 9 23
-55 51 -143 28 -87 57 -169 66 -182z m1728 -275 c11 -1 2 -5 -20 -8 -37 -6
-42 -11 -90 -94 -27 -48 -69 -110 -93 -137 -24 -27 -50 -67 -57 -87 l-15 -38
6 34 c4 20 30 64 63 105 31 40 76 109 100 155 37 72 46 82 64 77 12 -3 31 -6
42 -7z m-278 -411 c-3 -7 -5 -2 -5 12 0 14 2 19 5 13 2 -7 2 -19 0 -25z m9
-159 c17 -22 61 -140 78 -210 28 -112 39 -143 59 -166 19 -22 287 -158 407
-207 36 -15 76 -32 90 -38 14 -6 36 -15 50 -21 14 -5 34 -13 45 -18 11 -4 52
-19 90 -32 100 -35 123 -46 190 -91 163 -108 337 -280 390 -386 53 -106 104
-310 134 -535 14 -110 34 -531 29 -635 -4 -77 -4 -74 -6 35 -3 151 -18 416
-33 560 -22 220 -93 495 -156 602 -29 49 -212 228 -310 302 -79 60 -206 124
-349 175 -55 19 -147 56 -205 81 -103 45 -362 178 -386 197 -7 5 -15 26 -19
47 -14 77 -77 278 -100 320 -16 28 -24 58 -23 85 l2 41 6 -46 c4 -26 11 -53
17 -60z m-3149 -2011 c-2 -13 -4 -3 -4 22 0 25 2 35 4 23 2 -13 2 -33 0 -45z
m-21 -214 c-9 -82 -21 -198 -27 -259 -6 -60 -21 -200 -34 -310 -26 -214 -78
-682 -120 -1065 -45 -425 -42 -400 -43 -345 -1 28 5 115 14 195 8 80 21 206
29 280 16 164 29 283 50 455 8 72 20 177 26 235 5 58 16 159 24 225 8 66 19
163 24 215 6 52 14 127 20 165 5 39 15 120 21 180 14 139 21 188 26 182 3 -3
-2 -72 -10 -153z m4757 -669 c5 -230 4 -238 -3 -69 -4 104 -10 239 -13 300 -4
71 -3 95 3 69 4 -22 10 -157 13 -300z m-4986 -1437 c-3 -7 -5 -2 -5 12 0 14 2
19 5 13 2 -7 2 -19 0 -25z m-12 -143 c-4 -64 -9 -114 -12 -112 -2 3 -1 58 3
121 4 64 9 114 12 112 2 -3 1 -57 -3 -121z"/>
</g>
</svg>
